<svg xmlns="http://www.w3.org/2000/svg" version="1.1" width="8" height="17"><g id="https://proj-ex/2gRXFgjRn2HPE%24YoDLX3FC"><path d="M 4.03 11.01 L 4.03 10.094 L 2.506 10.094 L 2.506 11.01 L 4.03 11.01 Z" id="https://proj-ex/2gRXFgjRn2HPE%24YoDLX3FC" fill="#eee"></path></g><g id="https://proj-ex/0BTBFw6f90Nfh9rP1dl_3G"><path d="M 1.431 9.725 L 0.417 9.725 L 0.417 11.55 L 2.382 11.55 L 2.382 6.25 L 1.431 6.25 L 1.431 9.725 Z" id="https://proj-ex/0BTBFw6f90Nfh9rP1dl_3G" fill="#eee"></path></g><g id="https://proj-ex/0BTBFw6f90Nfh9rP1dlXrb"><path d="M 4.675 17.383 L 8.383 17.383 L 8.383 11.674 L 6.294 11.674 L 6.294 11.134 L 4.675 11.134 L 4.675 17.383 Z" id="https://proj-ex/0BTBFw6f90Nfh9rP1dlXrb" fill="#eee"></path></g><g id="https://proj-ex/0BTBFw6f90Nfh9rP1dlXrc"><path d="M 6.294 6.666 L 6.294 6.126 L 8.383 6.126 L 8.383 0.417 L 4.675 0.417 L 4.675 6.666 L 6.294 6.666 Z" id="https://proj-ex/0BTBFw6f90Nfh9rP1dlXrc" fill="#eee"></path></g><g id="https://proj-ex/0BTBFw6f90Nfh9rP1dlXre"><path d="M 4.77 10.95 L 6.294 10.95 L 6.294 7.845 L 4.77 7.845 L 4.77 10.95 Z" id="https://proj-ex/0BTBFw6f90Nfh9rP1dlXre" fill="#eee"></path></g><g id="https://proj-ex/2gRXFgjRn2HPE%24YoDLX3FV"><path d="M 6.294 7.721 L 6.294 6.79 L 4.77 6.79 L 4.77 7.721 L 6.294 7.721 Z" id="https://proj-ex/2gRXFgjRn2HPE%24YoDLX3FV" fill="#eee"></path></g><g id="https://proj-ex/0BTBFw6f90Nfh9rP1dl_39"><path d="M 0.417 6.126 L 2.506 6.126 L 2.506 6.666 L 4.125 6.666 L 4.125 0.417 L 0.417 0.417 L 0.417 6.126 Z" id="https://proj-ex/0BTBFw6f90Nfh9rP1dl_39" fill="#eee"></path></g><g id="https://proj-ex/0BTBFw6f90Nfh9rP1dlXri"><path d="M 8.383 6.25 L 8.383 8.075 L 7.369 8.075 L 7.369 11.55 L 6.418 11.55 L 6.418 6.25 L 8.383 6.25 Z" id="https://proj-ex/0BTBFw6f90Nfh9rP1dlXri" fill="#eee"></path></g><g id="https://proj-ex/0BTBFw6f90Nfh9rP1dl_3A"><path d="M 0.417 17.383 L 4.125 17.383 L 4.125 11.134 L 2.506 11.134 L 2.506 11.674 L 0.417 11.674 L 0.417 17.383 Z" id="https://proj-ex/0BTBFw6f90Nfh9rP1dl_3A" fill="#eee"></path></g><g id="https://proj-ex/0BTBFw6f90Nfh9rP1dl_3C"><path d="M 2.506 10.07 L 4.03 10.07 L 4.03 6.85 L 2.506 6.85 L 2.506 10.07 Z" id="https://proj-ex/0BTBFw6f90Nfh9rP1dl_3C" fill="#eee"></path></g></svg>